<svg width="385" height="145" viewBox="0 0 385 145" fill="none" xmlns="http://www.w3.org/2000/svg">
<path d="M79.4355 46.9086C79.4355 74.3127 88.6909 95.5914 97.0343 95.5914C105.378 95.5914 109.689 82.8845 109.689 61.103" stroke="#05A049" stroke-width="2.70374"/>
<path d="M74.6401 46.9086C74.6401 73.5947 82.0038 99.5009 98.756 100.494" stroke="#05A049" stroke-width="2.70374"/>
<path d="M70 46.9086C70 76.9773 79.3048 101.972 94.9798 104.98" stroke="#05A049" stroke-width="2.70374"/>
<path d="M100.253 61.098C100.253 74.5304 98.0298 86.4911 94.7798 95.1956" stroke="#05A049" stroke-width="2.70374"/>
<path d="M105.049 61.098C105.049 72.8361 103.472 85.0764 100.299 94.9725" stroke="#05A049" stroke-width="2.70374"/>
<path d="M105.049 48.0293L111.047 58.6468H99.0503L105.049 48.0293Z" fill="#05A049"/>
<mask id="path-7-outside-1_344_23" maskUnits="userSpaceOnUse" x="117.983" y="50" width="193" height="48" fill="black">
<rect fill="white" x="117.983" y="50" width="193" height="48"/>
<path d="M132.248 63.8773C135.713 63.8773 138.308 64.7486 140.031 66.4913C141.755 68.2339 142.616 71.0124 142.616 74.8269V96H140.351L139.828 90.4816H139.654C138.976 91.6628 138.153 92.718 137.185 93.6474C136.217 94.5575 135.026 95.2739 133.613 95.7967C132.219 96.3195 130.515 96.5809 128.501 96.5809C126.468 96.5809 124.725 96.242 123.273 95.5643C121.84 94.8866 120.727 93.8991 119.933 92.6018C119.158 91.3045 118.771 89.7265 118.771 87.8677C118.771 84.7309 120.068 82.3493 122.663 80.7228C125.258 79.077 128.985 78.1476 133.845 77.9346L139.712 77.6442V75.3497C139.712 72.1161 139.073 69.812 137.795 68.4372C136.517 67.0625 134.629 66.3751 132.131 66.3751C130.505 66.3751 128.937 66.5881 127.426 67.014C125.935 67.4207 124.415 68.0112 122.866 68.7857L121.937 66.346C123.447 65.6296 125.064 65.0391 126.787 64.5743C128.53 64.1096 130.35 63.8773 132.248 63.8773ZM139.683 79.9386L134.164 80.171C130.156 80.3646 127.107 81.081 125.016 82.3203C122.924 83.5595 121.879 85.4183 121.879 87.8967C121.879 89.8911 122.498 91.4207 123.738 92.4857C124.996 93.5506 126.739 94.0831 128.966 94.0831C132.432 94.0831 135.075 93.0956 136.895 91.1206C138.734 89.1456 139.663 86.4542 139.683 83.0464V79.9386ZM155.744 96H152.782V50.8075H155.744V96ZM190.771 64.4291V96H188.39L187.954 90.3074H187.78C187.238 91.4691 186.473 92.5244 185.485 93.4732C184.498 94.4219 183.288 95.1771 181.855 95.7386C180.422 96.3001 178.757 96.5809 176.859 96.5809C174.439 96.5809 172.406 96.1646 170.76 95.332C169.134 94.48 167.904 93.2021 167.071 91.4982C166.239 89.7943 165.822 87.6644 165.822 85.1085V64.4291H168.756V84.818C168.756 87.9742 169.463 90.2977 170.876 91.7886C172.309 93.2795 174.4 94.025 177.15 94.025C179.473 94.025 181.419 93.5797 182.988 92.689C184.575 91.7983 185.776 90.4526 186.589 88.6519C187.422 86.8318 187.838 84.5663 187.838 81.8556V64.4291H190.771ZM213.948 63.8773C214.781 63.8773 215.565 63.9257 216.301 64.0225C217.037 64.1193 217.724 64.2549 218.363 64.4291L217.898 67.1302C217.259 66.956 216.611 66.8301 215.952 66.7527C215.294 66.6558 214.587 66.6074 213.832 66.6074C212.341 66.6074 211.005 66.8882 209.824 67.4497C208.662 68.0112 207.675 68.8148 206.862 69.8604C206.048 70.9059 205.429 72.1645 205.003 73.6361C204.577 75.1077 204.364 76.7535 204.364 78.5736V96H201.401V64.4291H203.928L204.219 70.3832H204.393C204.877 69.1633 205.555 68.0693 206.426 67.1012C207.317 66.1137 208.391 65.3295 209.65 64.7486C210.909 64.1677 212.341 63.8773 213.948 63.8773ZM235.586 63.8773C239.052 63.8773 241.647 64.7486 243.37 66.4913C245.093 68.2339 245.955 71.0124 245.955 74.8269V96H243.69L243.167 90.4816H242.993C242.315 91.6628 241.492 92.718 240.524 93.6474C239.556 94.5575 238.365 95.2739 236.951 95.7967C235.557 96.3195 233.853 96.5809 231.84 96.5809C229.807 96.5809 228.064 96.242 226.612 95.5643C225.179 94.8866 224.065 93.8991 223.272 92.6018C222.497 91.3045 222.11 89.7265 222.11 87.8677C222.11 84.7309 223.407 82.3493 226.002 80.7228C228.596 79.077 232.324 78.1476 237.184 77.9346L243.051 77.6442V75.3497C243.051 72.1161 242.412 69.812 241.134 68.4372C239.856 67.0625 237.968 66.3751 235.47 66.3751C233.844 66.3751 232.275 66.5881 230.765 67.014C229.274 67.4207 227.754 68.0112 226.205 68.7857L225.276 66.346C226.786 65.6296 228.403 65.0391 230.126 64.5743C231.869 64.1096 233.689 63.8773 235.586 63.8773ZM243.022 79.9386L237.503 80.171C233.495 80.3646 230.445 81.081 228.354 82.3203C226.263 83.5595 225.218 85.4183 225.218 87.8967C225.218 89.8911 225.837 91.4207 227.076 92.4857C228.335 93.5506 230.078 94.0831 232.304 94.0831C235.77 94.0831 238.413 93.0956 240.233 91.1206C242.073 89.1456 243.002 86.4542 243.022 83.0464V79.9386ZM255.627 93.9379C255.627 93.0859 255.82 92.4373 256.208 91.9919C256.595 91.5272 257.166 91.2949 257.921 91.2949C258.754 91.2949 259.364 91.5272 259.751 91.9919C260.138 92.4373 260.332 93.0859 260.332 93.9379C260.332 94.7898 260.138 95.4482 259.751 95.9129C259.364 96.3776 258.754 96.6099 257.921 96.6099C257.166 96.6099 256.595 96.3776 256.208 95.9129C255.82 95.4482 255.627 94.7898 255.627 93.9379ZM297.595 96L291.816 80.9842H273.982L268.087 96H265.037L281.737 53.3924H284.467L300.732 96H297.595ZM290.857 78.2831L284.99 62.367C284.835 61.9604 284.642 61.4376 284.409 60.7986C284.196 60.1597 283.964 59.482 283.712 58.7655C283.48 58.0491 283.248 57.3714 283.015 56.7325C282.822 57.4102 282.609 58.0878 282.376 58.7655C282.144 59.4432 281.921 60.1016 281.708 60.7405C281.495 61.3601 281.292 61.9217 281.098 62.4251L274.999 78.2831H290.857ZM308.922 64.4291V96H305.989V64.4291H308.922ZM307.499 52.7534C308.235 52.7534 308.777 52.9761 309.126 53.4214C309.474 53.8474 309.649 54.4283 309.649 55.1641C309.649 55.8999 309.474 56.4807 309.126 56.9067C308.777 57.3327 308.235 57.5457 307.499 57.5457C306.802 57.5457 306.279 57.3327 305.931 56.9067C305.582 56.4807 305.408 55.8999 305.408 55.1641C305.408 54.4283 305.582 53.8474 305.931 53.4214C306.279 52.9761 306.802 52.7534 307.499 52.7534Z"/>
</mask>
<path d="M132.248 63.8773C135.713 63.8773 138.308 64.7486 140.031 66.4913C141.755 68.2339 142.616 71.0124 142.616 74.8269V96H140.351L139.828 90.4816H139.654C138.976 91.6628 138.153 92.718 137.185 93.6474C136.217 94.5575 135.026 95.2739 133.613 95.7967C132.219 96.3195 130.515 96.5809 128.501 96.5809C126.468 96.5809 124.725 96.242 123.273 95.5643C121.84 94.8866 120.727 93.8991 119.933 92.6018C119.158 91.3045 118.771 89.7265 118.771 87.8677C118.771 84.7309 120.068 82.3493 122.663 80.7228C125.258 79.077 128.985 78.1476 133.845 77.9346L139.712 77.6442V75.3497C139.712 72.1161 139.073 69.812 137.795 68.4372C136.517 67.0625 134.629 66.3751 132.131 66.3751C130.505 66.3751 128.937 66.5881 127.426 67.014C125.935 67.4207 124.415 68.0112 122.866 68.7857L121.937 66.346C123.447 65.6296 125.064 65.0391 126.787 64.5743C128.53 64.1096 130.35 63.8773 132.248 63.8773ZM139.683 79.9386L134.164 80.171C130.156 80.3646 127.107 81.081 125.016 82.3203C122.924 83.5595 121.879 85.4183 121.879 87.8967C121.879 89.8911 122.498 91.4207 123.738 92.4857C124.996 93.5506 126.739 94.0831 128.966 94.0831C132.432 94.0831 135.075 93.0956 136.895 91.1206C138.734 89.1456 139.663 86.4542 139.683 83.0464V79.9386ZM155.744 96H152.782V50.8075H155.744V96ZM190.771 64.4291V96H188.39L187.954 90.3074H187.78C187.238 91.4691 186.473 92.5244 185.485 93.4732C184.498 94.4219 183.288 95.1771 181.855 95.7386C180.422 96.3001 178.757 96.5809 176.859 96.5809C174.439 96.5809 172.406 96.1646 170.76 95.332C169.134 94.48 167.904 93.2021 167.071 91.4982C166.239 89.7943 165.822 87.6644 165.822 85.1085V64.4291H168.756V84.818C168.756 87.9742 169.463 90.2977 170.876 91.7886C172.309 93.2795 174.4 94.025 177.15 94.025C179.473 94.025 181.419 93.5797 182.988 92.689C184.575 91.7983 185.776 90.4526 186.589 88.6519C187.422 86.8318 187.838 84.5663 187.838 81.8556V64.4291H190.771ZM213.948 63.8773C214.781 63.8773 215.565 63.9257 216.301 64.0225C217.037 64.1193 217.724 64.2549 218.363 64.4291L217.898 67.1302C217.259 66.956 216.611 66.8301 215.952 66.7527C215.294 66.6558 214.587 66.6074 213.832 66.6074C212.341 66.6074 211.005 66.8882 209.824 67.4497C208.662 68.0112 207.675 68.8148 206.862 69.8604C206.048 70.9059 205.429 72.1645 205.003 73.6361C204.577 75.1077 204.364 76.7535 204.364 78.5736V96H201.401V64.4291H203.928L204.219 70.3832H204.393C204.877 69.1633 205.555 68.0693 206.426 67.1012C207.317 66.1137 208.391 65.3295 209.65 64.7486C210.909 64.1677 212.341 63.8773 213.948 63.8773ZM235.586 63.8773C239.052 63.8773 241.647 64.7486 243.37 66.4913C245.093 68.2339 245.955 71.0124 245.955 74.8269V96H243.69L243.167 90.4816H242.993C242.315 91.6628 241.492 92.718 240.524 93.6474C239.556 94.5575 238.365 95.2739 236.951 95.7967C235.557 96.3195 233.853 96.5809 231.84 96.5809C229.807 96.5809 228.064 96.242 226.612 95.5643C225.179 94.8866 224.065 93.8991 223.272 92.6018C222.497 91.3045 222.11 89.7265 222.11 87.8677C222.11 84.7309 223.407 82.3493 226.002 80.7228C228.596 79.077 232.324 78.1476 237.184 77.9346L243.051 77.6442V75.3497C243.051 72.1161 242.412 69.812 241.134 68.4372C239.856 67.0625 237.968 66.3751 235.47 66.3751C233.844 66.3751 232.275 66.5881 230.765 67.014C229.274 67.4207 227.754 68.0112 226.205 68.7857L225.276 66.346C226.786 65.6296 228.403 65.0391 230.126 64.5743C231.869 64.1096 233.689 63.8773 235.586 63.8773ZM243.022 79.9386L237.503 80.171C233.495 80.3646 230.445 81.081 228.354 82.3203C226.263 83.5595 225.218 85.4183 225.218 87.8967C225.218 89.8911 225.837 91.4207 227.076 92.4857C228.335 93.5506 230.078 94.0831 232.304 94.0831C235.77 94.0831 238.413 93.0956 240.233 91.1206C242.073 89.1456 243.002 86.4542 243.022 83.0464V79.9386ZM255.627 93.9379C255.627 93.0859 255.82 92.4373 256.208 91.9919C256.595 91.5272 257.166 91.2949 257.921 91.2949C258.754 91.2949 259.364 91.5272 259.751 91.9919C260.138 92.4373 260.332 93.0859 260.332 93.9379C260.332 94.7898 260.138 95.4482 259.751 95.9129C259.364 96.3776 258.754 96.6099 257.921 96.6099C257.166 96.6099 256.595 96.3776 256.208 95.9129C255.82 95.4482 255.627 94.7898 255.627 93.9379ZM297.595 96L291.816 80.9842H273.982L268.087 96H265.037L281.737 53.3924H284.467L300.732 96H297.595ZM290.857 78.2831L284.99 62.367C284.835 61.9604 284.642 61.4376 284.409 60.7986C284.196 60.1597 283.964 59.482 283.712 58.7655C283.48 58.0491 283.248 57.3714 283.015 56.7325C282.822 57.4102 282.609 58.0878 282.376 58.7655C282.144 59.4432 281.921 60.1016 281.708 60.7405C281.495 61.3601 281.292 61.9217 281.098 62.4251L274.999 78.2831H290.857ZM308.922 64.4291V96H305.989V64.4291H308.922ZM307.499 52.7534C308.235 52.7534 308.777 52.9761 309.126 53.4214C309.474 53.8474 309.649 54.4283 309.649 55.1641C309.649 55.8999 309.474 56.4807 309.126 56.9067C308.777 57.3327 308.235 57.5457 307.499 57.5457C306.802 57.5457 306.279 57.3327 305.931 56.9067C305.582 56.4807 305.408 55.8999 305.408 55.1641C305.408 54.4283 305.582 53.8474 305.931 53.4214C306.279 52.9761 306.802 52.7534 307.499 52.7534Z" fill="#05A049"/>
<path d="M142.616 96V96.4326H143.049V96H142.616ZM140.351 96L139.92 96.0408L139.957 96.4326H140.351V96ZM139.828 90.4816L140.259 90.4408L140.222 90.049H139.828V90.4816ZM139.654 90.4816V90.049H139.403L139.279 90.2663L139.654 90.4816ZM137.185 93.6474L137.481 93.9627L137.485 93.9595L137.185 93.6474ZM133.613 95.7967L133.463 95.391L133.461 95.3916L133.613 95.7967ZM123.273 95.5643L123.088 95.9554L123.09 95.9564L123.273 95.5643ZM119.933 92.6018L119.561 92.8236L119.564 92.8276L119.933 92.6018ZM122.663 80.7228L122.893 81.0894L122.895 81.0881L122.663 80.7228ZM133.845 77.9346L133.864 78.3668L133.866 78.3667L133.845 77.9346ZM139.712 77.6442L139.733 78.0762L140.144 78.0559V77.6442H139.712ZM127.426 67.014L127.54 67.4314L127.544 67.4304L127.426 67.014ZM122.866 68.7857L122.462 68.9397L122.632 69.3864L123.06 69.1727L122.866 68.7857ZM121.937 66.346L121.752 65.9552L121.39 66.1265L121.533 66.5L121.937 66.346ZM126.787 64.5743L126.676 64.1564L126.675 64.1567L126.787 64.5743ZM139.683 79.9386H140.115V79.4874L139.665 79.5064L139.683 79.9386ZM134.164 80.171L134.146 79.7388L134.144 79.7389L134.164 80.171ZM125.016 82.3203L124.795 81.9481L125.016 82.3203ZM123.738 92.4857L123.456 92.8138L123.458 92.8159L123.738 92.4857ZM136.895 91.1206L136.578 90.8258L136.577 90.8274L136.895 91.1206ZM139.683 83.0464L140.115 83.0488V83.0464H139.683ZM132.248 63.8773V64.3099C135.646 64.3099 138.11 65.164 139.724 66.7954L140.031 66.4913L140.339 66.1871C138.506 64.3332 135.781 63.4447 132.248 63.4447V63.8773ZM140.031 66.4913L139.724 66.7954C141.332 68.4219 142.184 71.0647 142.184 74.8269H142.616H143.049C143.049 70.9601 142.177 68.0459 140.339 66.1871L140.031 66.4913ZM142.616 74.8269H142.184V96H142.616H143.049V74.8269H142.616ZM142.616 96V95.5674H140.351V96V96.4326H142.616V96ZM140.351 96L140.782 95.9592L140.259 90.4408L139.828 90.4816L139.397 90.5224L139.92 96.0408L140.351 96ZM139.828 90.4816V90.049H139.654V90.4816V90.9142H139.828V90.4816ZM139.654 90.4816L139.279 90.2663C138.621 91.4123 137.823 92.4349 136.885 93.3354L137.185 93.6474L137.485 93.9595C138.483 93.0012 139.331 91.9132 140.029 90.6969L139.654 90.4816ZM137.185 93.6474L136.889 93.3322C135.968 94.1976 134.829 94.8856 133.463 95.391L133.613 95.7967L133.763 96.2024C135.223 95.6622 136.466 94.9173 137.481 93.9626L137.185 93.6474ZM133.613 95.7967L133.461 95.3916C132.129 95.891 130.48 96.1483 128.501 96.1483V96.5809V97.0135C130.549 97.0135 132.308 96.7479 133.765 96.2017L133.613 95.7967ZM128.501 96.5809V96.1483C126.515 96.1483 124.838 95.8171 123.456 95.1723L123.273 95.5643L123.09 95.9564C124.613 96.667 126.421 97.0135 128.501 97.0135V96.5809ZM123.273 95.5643L123.458 95.1733C122.098 94.53 121.05 93.5984 120.302 92.376L119.933 92.6018L119.564 92.8276C120.404 94.1999 121.582 95.2433 123.088 95.9554L123.273 95.5643ZM119.933 92.6018L120.304 92.3801C119.578 91.1637 119.204 89.6663 119.204 87.8677H118.771H118.339C118.339 89.7867 118.739 91.4454 119.561 92.8236L119.933 92.6018ZM118.771 87.8677H119.204C119.204 84.8755 120.428 82.6344 122.893 81.0894L122.663 80.7228L122.433 80.3563C119.709 82.0642 118.339 84.5864 118.339 87.8677H118.771ZM122.663 80.7228L122.895 81.0881C125.399 79.4999 129.04 78.5782 133.864 78.3668L133.845 77.9346L133.826 77.5024C128.93 77.717 125.117 78.6541 122.431 80.3575L122.663 80.7228ZM133.845 77.9346L133.866 78.3667L139.733 78.0762L139.712 77.6442L139.691 77.2121L133.824 77.5025L133.845 77.9346ZM139.712 77.6442H140.144V75.3497H139.712H139.279V77.6442H139.712ZM139.712 75.3497H140.144C140.144 72.0797 139.502 69.6383 138.112 68.1427L137.795 68.4372L137.478 68.7317C138.644 69.9856 139.279 72.1526 139.279 75.3497H139.712ZM137.795 68.4372L138.112 68.1427C136.727 66.6535 134.708 65.9425 132.131 65.9425V66.3751V66.8077C134.551 66.8077 136.307 67.4715 137.478 68.7317L137.795 68.4372ZM132.131 66.3751V65.9425C130.467 65.9425 128.859 66.1605 127.309 66.5977L127.426 67.014L127.544 67.4304C129.014 67.0156 130.543 66.8077 132.131 66.8077V66.3751ZM127.426 67.014L127.312 66.5967C125.791 67.0116 124.244 67.6131 122.673 68.3988L122.866 68.7857L123.06 69.1727C124.586 68.4094 126.08 67.8297 127.54 67.4314L127.426 67.014ZM122.866 68.7857L123.271 68.6317L122.341 66.192L121.937 66.346L121.533 66.5L122.462 68.9397L122.866 68.7857ZM121.937 66.346L122.122 66.7369C123.608 66.0323 125.2 65.4504 126.9 64.992L126.787 64.5743L126.675 64.1567C124.928 64.6277 123.287 65.2269 121.752 65.9552L121.937 66.346ZM126.787 64.5743L126.899 64.9923C128.603 64.5378 130.386 64.3099 132.248 64.3099V63.8773V63.4447C130.314 63.4447 128.457 63.6815 126.676 64.1564L126.787 64.5743ZM139.683 79.9386L139.665 79.5064L134.146 79.7388L134.164 80.171L134.183 80.6032L139.701 80.3709L139.683 79.9386ZM134.164 80.171L134.144 79.7389C130.106 79.934 126.974 80.6568 124.795 81.9481L125.016 82.3203L125.236 82.6924C127.239 81.5053 130.207 80.7953 134.185 80.6031L134.164 80.171ZM125.016 82.3203L124.795 81.9481C122.569 83.2671 121.446 85.2692 121.446 87.8967H121.879H122.311C122.311 85.5674 123.28 83.8519 125.236 82.6924L125.016 82.3203ZM121.879 87.8967H121.446C121.446 89.9868 122.1 91.6487 123.456 92.8138L123.738 92.4857L124.02 92.1576C122.897 91.1927 122.311 89.7953 122.311 87.8967H121.879ZM123.738 92.4857L123.458 92.8159C124.819 93.967 126.673 94.5157 128.966 94.5157V94.0831V93.6505C126.805 93.6505 125.174 93.1343 124.017 92.1554L123.738 92.4857ZM128.966 94.0831V94.5157C132.515 94.5157 135.289 93.5017 137.213 91.4138L136.895 91.1206L136.577 90.8274C134.861 92.6895 132.348 93.6505 128.966 93.6505V94.0831ZM136.895 91.1206L137.211 91.4154C139.143 89.3417 140.096 86.5356 140.115 83.0488L139.683 83.0464L139.25 83.0439C139.231 86.3728 138.326 88.9495 136.578 90.8258L136.895 91.1206ZM139.683 83.0464H140.115V79.9386H139.683H139.25V83.0464H139.683ZM155.744 96V96.4326H156.177V96H155.744ZM152.782 96H152.349V96.4326H152.782V96ZM152.782 50.8075V50.3749H152.349V50.8075H152.782ZM155.744 50.8075H156.177V50.3749H155.744V50.8075ZM155.744 96V95.5674H152.782V96V96.4326H155.744V96ZM152.782 96H153.214V50.8075H152.782H152.349V96H152.782ZM152.782 50.8075V51.2401H155.744V50.8075V50.3749H152.782V50.8075ZM155.744 50.8075H155.312V96H155.744H156.177V50.8075H155.744ZM190.771 64.4291H191.204V63.9965H190.771V64.4291ZM190.771 96V96.4326H191.204V96H190.771ZM188.39 96L187.958 96.033L187.989 96.4326H188.39V96ZM187.954 90.3074L188.385 90.2744L188.355 89.8748H187.954V90.3074ZM187.78 90.3074V89.8748H187.504L187.388 90.1244L187.78 90.3074ZM170.76 95.332L170.559 95.7152L170.565 95.718L170.76 95.332ZM165.822 64.4291V63.9965H165.39V64.4291H165.822ZM168.756 64.4291H169.189V63.9965H168.756V64.4291ZM170.876 91.7886L170.562 92.0863L170.564 92.0884L170.876 91.7886ZM182.988 92.689L182.776 92.3117L182.774 92.3128L182.988 92.689ZM186.589 88.6519L186.196 88.4719L186.195 88.4738L186.589 88.6519ZM187.838 64.4291V63.9965H187.405V64.4291H187.838ZM190.771 64.4291H190.339V96H190.771H191.204V64.4291H190.771ZM190.771 96V95.5674H188.39V96V96.4326H190.771V96ZM188.39 96L188.821 95.967L188.385 90.2744L187.954 90.3074L187.523 90.3404L187.958 96.033L188.39 96ZM187.954 90.3074V89.8748H187.78V90.3074V90.74H187.954V90.3074ZM187.78 90.3074L187.388 90.1244C186.87 91.2347 186.137 92.2469 185.186 93.1612L185.485 93.4732L185.785 93.7851C186.808 92.8019 187.606 91.7036 188.172 90.4903L187.78 90.3074ZM185.485 93.4732L185.186 93.1612C184.244 94.0661 183.084 94.7924 181.697 95.3358L181.855 95.7386L182.013 96.1414C183.492 95.5617 184.752 94.7777 185.785 93.7851L185.485 93.4732ZM181.855 95.7386L181.697 95.3358C180.325 95.8736 178.715 96.1483 176.859 96.1483V96.5809V97.0135C178.799 97.0135 180.519 96.7266 182.013 96.1414L181.855 95.7386ZM176.859 96.5809V96.1483C174.486 96.1483 172.525 95.7399 170.955 94.946L170.76 95.332L170.565 95.718C172.287 96.5893 174.391 97.0135 176.859 97.0135V96.5809ZM170.76 95.332L170.961 94.9488C169.419 94.1411 168.254 92.9323 167.46 91.3083L167.071 91.4982L166.683 91.6881C167.554 93.4719 168.848 94.819 170.559 95.7152L170.76 95.332ZM167.071 91.4982L167.46 91.3083C166.665 89.6803 166.255 87.6203 166.255 85.1085H165.822H165.39C165.39 87.7084 165.813 89.9082 166.683 91.6881L167.071 91.4982ZM165.822 85.1085H166.255V64.4291H165.822H165.39V85.1085H165.822ZM165.822 64.4291V64.8617H168.756V64.4291V63.9965H165.822V64.4291ZM168.756 64.4291H168.323V84.818H168.756H169.189V64.4291H168.756ZM168.756 84.818H168.323C168.323 88.0272 169.04 90.4811 170.562 92.0862L170.876 91.7886L171.19 91.491C169.885 90.1143 169.189 87.9211 169.189 84.818H168.756ZM170.876 91.7886L170.564 92.0884C172.103 93.6894 174.323 94.4576 177.15 94.4576V94.025V93.5924C174.477 93.5924 172.515 92.8696 171.188 91.4889L170.876 91.7886ZM177.15 94.025V94.4576C179.527 94.4576 181.551 94.002 183.201 93.0651L182.988 92.689L182.774 92.3128C181.287 93.1573 179.419 93.5924 177.15 93.5924V94.025ZM182.988 92.689L183.199 93.0663C184.874 92.1265 186.135 90.7073 186.983 88.8299L186.589 88.6519L186.195 88.4738C185.416 90.1979 184.276 91.4701 182.776 92.3117L182.988 92.689ZM186.589 88.6519L186.982 88.8318C187.848 86.939 188.27 84.6076 188.27 81.8556H187.838H187.405C187.405 84.525 186.995 86.7246 186.196 88.4719L186.589 88.6519ZM187.838 81.8556H188.27V64.4291H187.838H187.405V81.8556H187.838ZM187.838 64.4291V64.8617H190.771V64.4291V63.9965H187.838V64.4291ZM216.301 64.0225L216.357 63.5936L216.301 64.0225ZM218.363 64.4291L218.789 64.5025L218.856 64.1152L218.477 64.0118L218.363 64.4291ZM217.898 67.1302L217.785 67.5476L218.244 67.6729L218.325 67.2036L217.898 67.1302ZM215.952 66.7527L215.89 67.1808L215.902 67.1823L215.952 66.7527ZM209.824 67.4497L209.638 67.059L209.636 67.0602L209.824 67.4497ZM204.364 96V96.4326H204.797V96H204.364ZM201.401 96H200.969V96.4326H201.401V96ZM201.401 64.4291V63.9965H200.969V64.4291H201.401ZM203.928 64.4291L204.36 64.408L204.34 63.9965H203.928V64.4291ZM204.219 70.3832L203.787 70.4042L203.807 70.8158H204.219V70.3832ZM204.393 70.3832V70.8158H204.687L204.795 70.5427L204.393 70.3832ZM206.426 67.1012L206.105 66.8114L206.105 66.8118L206.426 67.1012ZM213.948 63.8773V64.3099C214.764 64.3099 215.53 64.3573 216.245 64.4514L216.301 64.0225L216.357 63.5936C215.601 63.4941 214.798 63.4447 213.948 63.4447V63.8773ZM216.301 64.0225L216.245 64.4514C216.963 64.546 217.631 64.6779 218.249 64.8465L218.363 64.4291L218.477 64.0118C217.817 63.8318 217.11 63.6927 216.357 63.5936L216.301 64.0225ZM218.363 64.4291L217.937 64.3558L217.472 67.0569L217.898 67.1302L218.325 67.2036L218.789 64.5025L218.363 64.4291ZM217.898 67.1302L218.012 66.7129C217.353 66.5329 216.683 66.403 216.003 66.323L215.952 66.7527L215.902 67.1823C216.539 67.2572 217.166 67.379 217.785 67.5476L217.898 67.1302ZM215.952 66.7527L216.015 66.3247C215.334 66.2244 214.606 66.1748 213.832 66.1748V66.6074V67.04C214.569 67.04 215.255 67.0873 215.89 67.1806L215.952 66.7527ZM213.832 66.6074V66.1748C212.286 66.1748 210.885 66.4663 209.638 67.059L209.824 67.4497L210.01 67.8404C211.125 67.3101 212.397 67.04 213.832 67.04V66.6074ZM209.824 67.4497L209.636 67.0602C208.413 67.6515 207.373 68.4981 206.52 69.5948L206.862 69.8604L207.203 70.126C207.977 69.1315 208.912 68.371 210.012 67.8392L209.824 67.4497ZM206.862 69.8604L206.52 69.5948C205.668 70.6899 205.026 71.9997 204.587 73.5158L205.003 73.6361L205.418 73.7564C205.832 72.3294 206.428 71.122 207.203 70.126L206.862 69.8604ZM205.003 73.6361L204.587 73.5158C204.148 75.033 203.931 76.7202 203.931 78.5736H204.364H204.797C204.797 76.7868 205.006 75.1823 205.418 73.7564L205.003 73.6361ZM204.364 78.5736H203.931V96H204.364H204.797V78.5736H204.364ZM204.364 96V95.5674H201.401V96V96.4326H204.364V96ZM201.401 96H201.834V64.4291H201.401H200.969V96H201.401ZM201.401 64.4291V64.8617H203.928V64.4291V63.9965H201.401V64.4291ZM203.928 64.4291L203.496 64.4502L203.787 70.4042L204.219 70.3832L204.651 70.3621L204.36 64.408L203.928 64.4291ZM204.219 70.3832V70.8158H204.393V70.3832V69.9506H204.219V70.3832ZM204.393 70.3832L204.795 70.5427C205.26 69.3702 205.911 68.3203 206.748 67.3906L206.426 67.1012L206.105 66.8118C205.199 67.8184 204.494 68.9564 203.991 70.2236L204.393 70.3832ZM206.426 67.1012L206.747 67.3909C207.597 66.4487 208.623 65.6988 209.831 65.1414L209.65 64.7486L209.469 64.3558C208.159 64.9602 207.036 65.7786 206.105 66.8114L206.426 67.1012ZM209.65 64.7486L209.831 65.1414C211.025 64.5906 212.394 64.3099 213.948 64.3099V63.8773V63.4447C212.289 63.4447 210.792 63.7449 209.469 64.3558L209.65 64.7486ZM245.955 96V96.4326H246.388V96H245.955ZM243.69 96L243.259 96.0408L243.296 96.4326H243.69V96ZM243.167 90.4816L243.597 90.4408L243.56 90.049H243.167V90.4816ZM242.993 90.4816V90.049H242.742L242.617 90.2663L242.993 90.4816ZM240.524 93.6474L240.82 93.9627L240.823 93.9595L240.524 93.6474ZM236.951 95.7967L236.801 95.391L236.799 95.3916L236.951 95.7967ZM226.612 95.5643L226.427 95.9554L226.429 95.9564L226.612 95.5643ZM223.272 92.6018L222.9 92.8236L222.903 92.8276L223.272 92.6018ZM226.002 80.7228L226.232 81.0894L226.233 81.0881L226.002 80.7228ZM237.184 77.9346L237.203 78.3668L237.205 78.3667L237.184 77.9346ZM243.051 77.6442L243.072 78.0762L243.483 78.0559V77.6442H243.051ZM230.765 67.014L230.879 67.4314L230.882 67.4304L230.765 67.014ZM226.205 68.7857L225.801 68.9397L225.971 69.3864L226.399 69.1727L226.205 68.7857ZM225.276 66.346L225.09 65.9552L224.729 66.1265L224.871 66.5L225.276 66.346ZM230.126 64.5743L230.015 64.1564L230.013 64.1567L230.126 64.5743ZM243.022 79.9386H243.454V79.4874L243.003 79.5064L243.022 79.9386ZM237.503 80.171L237.485 79.7388L237.482 79.7389L237.503 80.171ZM228.354 82.3203L228.134 81.9481L228.354 82.3203ZM227.076 92.4857L226.794 92.8138L226.797 92.8159L227.076 92.4857ZM240.233 91.1206L239.917 90.8258L239.915 90.8274L240.233 91.1206ZM243.022 83.0464L243.454 83.0488V83.0464H243.022ZM235.586 63.8773V64.3099C238.985 64.3099 241.449 65.164 243.062 66.7954L243.37 66.4913L243.678 66.1871C241.844 64.3332 239.119 63.4447 235.586 63.4447V63.8773ZM243.37 66.4913L243.062 66.7954C244.671 68.4219 245.522 71.0647 245.522 74.8269H245.955H246.388C246.388 70.9601 245.516 68.0459 243.678 66.1871L243.37 66.4913ZM245.955 74.8269H245.522V96H245.955H246.388V74.8269H245.955ZM245.955 96V95.5674H243.69V96V96.4326H245.955V96ZM243.69 96L244.12 95.9592L243.597 90.4408L243.167 90.4816L242.736 90.5224L243.259 96.0408L243.69 96ZM243.167 90.4816V90.049H242.993V90.4816V90.9142H243.167V90.4816ZM242.993 90.4816L242.617 90.2663C241.96 91.4123 241.162 92.4349 240.224 93.3354L240.524 93.6474L240.823 93.9595C241.822 93.0012 242.67 91.9132 243.368 90.6969L242.993 90.4816ZM240.524 93.6474L240.227 93.3322C239.307 94.1976 238.168 94.8856 236.801 95.391L236.951 95.7967L237.101 96.2024C238.562 95.6622 239.804 94.9173 240.82 93.9626L240.524 93.6474ZM236.951 95.7967L236.799 95.3916C235.468 95.891 233.819 96.1483 231.84 96.1483V96.5809V97.0135C233.888 97.0135 235.647 96.7479 237.103 96.2017L236.951 95.7967ZM231.84 96.5809V96.1483C229.853 96.1483 228.176 95.8171 226.795 95.1723L226.612 95.5643L226.429 95.9564C227.951 96.667 229.76 97.0135 231.84 97.0135V96.5809ZM226.612 95.5643L226.797 95.1733C225.437 94.53 224.389 93.5984 223.641 92.376L223.272 92.6018L222.903 92.8276C223.742 94.1999 224.921 95.2433 226.427 95.9554L226.612 95.5643ZM223.272 92.6018L223.643 92.3801C222.917 91.1637 222.542 89.6663 222.542 87.8677H222.11H221.677C221.677 89.7867 222.077 91.4454 222.9 92.8236L223.272 92.6018ZM222.11 87.8677H222.542C222.542 84.8755 223.767 82.6344 226.232 81.0894L226.002 80.7228L225.772 80.3563C223.047 82.0642 221.677 84.5864 221.677 87.8677H222.11ZM226.002 80.7228L226.233 81.0881C228.737 79.4999 232.378 78.5782 237.203 78.3668L237.184 77.9346L237.165 77.5024C232.269 77.717 228.455 78.6541 225.77 80.3575L226.002 80.7228ZM237.184 77.9346L237.205 78.3667L243.072 78.0762L243.051 77.6442L243.029 77.2121L237.162 77.5025L237.184 77.9346ZM243.051 77.6442H243.483V75.3497H243.051H242.618V77.6442H243.051ZM243.051 75.3497H243.483C243.483 72.0797 242.841 69.6383 241.451 68.1427L241.134 68.4372L240.817 68.7317C241.982 69.9856 242.618 72.1526 242.618 75.3497H243.051ZM241.134 68.4372L241.451 68.1427C240.066 66.6535 238.047 65.9425 235.47 65.9425V66.3751V66.8077C237.889 66.8077 239.645 67.4715 240.817 68.7317L241.134 68.4372ZM235.47 66.3751V65.9425C233.805 65.9425 232.197 66.1605 230.648 66.5977L230.765 67.014L230.882 67.4304C232.353 67.0156 233.882 66.8077 235.47 66.8077V66.3751ZM230.765 67.014L230.651 66.5967C229.13 67.0116 227.583 67.6131 226.012 68.3988L226.205 68.7857L226.399 69.1727C227.925 68.4094 229.418 67.8297 230.879 67.4314L230.765 67.014ZM226.205 68.7857L226.609 68.6317L225.68 66.192L225.276 66.346L224.871 66.5L225.801 68.9397L226.205 68.7857ZM225.276 66.346L225.461 66.7369C226.946 66.0323 228.539 65.4504 230.239 64.992L230.126 64.5743L230.013 64.1567C228.267 64.6277 226.625 65.2269 225.09 65.9552L225.276 66.346ZM230.126 64.5743L230.237 64.9923C231.942 64.5378 233.724 64.3099 235.586 64.3099V63.8773V63.4447C233.653 63.4447 231.795 63.6815 230.015 64.1564L230.126 64.5743ZM243.022 79.9386L243.003 79.5064L237.485 79.7388L237.503 80.171L237.521 80.6032L243.04 80.3709L243.022 79.9386ZM237.503 80.171L237.482 79.7389C233.444 79.934 230.313 80.6568 228.134 81.9481L228.354 82.3203L228.575 82.6924C230.578 81.5053 233.546 80.7953 237.524 80.6031L237.503 80.171ZM228.354 82.3203L228.134 81.9481C225.908 83.2671 224.785 85.2692 224.785 87.8967H225.218H225.65C225.65 85.5674 226.618 83.8519 228.575 82.6924L228.354 82.3203ZM225.218 87.8967H224.785C224.785 89.9868 225.439 91.6487 226.794 92.8138L227.076 92.4857L227.358 92.1576C226.236 91.1927 225.65 89.7953 225.65 87.8967H225.218ZM227.076 92.4857L226.797 92.8159C228.157 93.967 230.011 94.5157 232.304 94.5157V94.0831V93.6505C230.144 93.6505 228.513 93.1343 227.356 92.1554L227.076 92.4857ZM232.304 94.0831V94.5157C235.854 94.5157 238.627 93.5017 240.551 91.4138L240.233 91.1206L239.915 90.8274C238.199 92.6895 235.687 93.6505 232.304 93.6505V94.0831ZM240.233 91.1206L240.55 91.4154C242.481 89.3417 243.434 86.5356 243.454 83.0488L243.022 83.0464L242.589 83.0439C242.57 86.3728 241.664 88.9495 239.917 90.8258L240.233 91.1206ZM243.022 83.0464H243.454V79.9386H243.022H242.589V83.0464H243.022ZM256.208 91.9919L256.534 92.2758L256.54 92.2689L256.208 91.9919ZM259.751 91.9919L259.419 92.2689L259.424 92.2758L259.751 91.9919ZM255.627 93.9379H256.059C256.059 93.1447 256.24 92.6138 256.534 92.2758L256.208 91.9919L255.881 91.7081C255.4 92.2607 255.194 93.0271 255.194 93.9379H255.627ZM256.208 91.9919L256.54 92.2689C256.825 91.9267 257.26 91.7275 257.921 91.7275V91.2949V90.8623C257.072 90.8623 256.365 91.1278 255.875 91.715L256.208 91.9919ZM257.921 91.2949V91.7275C258.676 91.7275 259.141 91.9361 259.419 92.2689L259.751 91.9919L260.083 91.715C259.586 91.1183 258.831 90.8623 257.921 90.8623V91.2949ZM259.751 91.9919L259.424 92.2758C259.718 92.6138 259.899 93.1447 259.899 93.9379H260.332H260.764C260.764 93.0271 260.558 92.2607 260.077 91.7081L259.751 91.9919ZM260.332 93.9379H259.899C259.899 94.7294 259.719 95.2754 259.419 95.6359L259.751 95.9129L260.083 96.1898C260.557 95.6209 260.764 94.8503 260.764 93.9379H260.332ZM259.751 95.9129L259.419 95.6359C259.141 95.9687 258.676 96.1773 257.921 96.1773V96.6099V97.0425C258.831 97.0425 259.586 96.7865 260.083 96.1898L259.751 95.9129ZM257.921 96.6099V96.1773C257.26 96.1773 256.825 95.9781 256.54 95.6359L256.208 95.9129L255.875 96.1898C256.365 96.777 257.072 97.0425 257.921 97.0425V96.6099ZM256.208 95.9129L256.54 95.6359C256.239 95.2754 256.059 94.7294 256.059 93.9379H255.627H255.194C255.194 94.8503 255.401 95.6209 255.875 96.1898L256.208 95.9129ZM297.595 96L297.192 96.1554L297.298 96.4326H297.595V96ZM291.816 80.9842L292.219 80.8288L292.113 80.5516H291.816V80.9842ZM273.982 80.9842V80.5516H273.688L273.58 80.8261L273.982 80.9842ZM268.087 96V96.4326H268.381L268.489 96.1581L268.087 96ZM265.037 96L264.634 95.8421L264.403 96.4326H265.037V96ZM281.737 53.3924V52.9598H281.442L281.334 53.2345L281.737 53.3924ZM284.467 53.3924L284.872 53.2381L284.765 52.9598H284.467V53.3924ZM300.732 96V96.4326H301.36L301.136 95.8457L300.732 96ZM290.857 78.2831V78.7157H291.478L291.263 78.1335L290.857 78.2831ZM284.99 62.367L285.396 62.2174L285.394 62.213L284.99 62.367ZM284.409 60.7986L283.999 60.9355L284.003 60.9465L284.409 60.7986ZM283.712 58.7655L283.301 58.899L283.304 58.9089L283.712 58.7655ZM283.015 56.7325L283.422 56.5846L282.966 55.3307L282.599 56.6136L283.015 56.7325ZM281.708 60.7405L282.117 60.8812L282.119 60.8773L281.708 60.7405ZM281.098 62.4251L281.502 62.5804L281.098 62.4251ZM274.999 78.2831L274.595 78.1278L274.369 78.7157H274.999V78.2831ZM297.595 96L297.999 95.8446L292.219 80.8288L291.816 80.9842L291.412 81.1396L297.192 96.1554L297.595 96ZM291.816 80.9842V80.5516H273.982V80.9842V81.4168H291.816V80.9842ZM273.982 80.9842L273.58 80.8261L267.684 95.8419L268.087 96L268.489 96.1581L274.385 81.1423L273.982 80.9842ZM268.087 96V95.5674H265.037V96V96.4326H268.087V96ZM265.037 96L265.44 96.1579L282.14 53.5503L281.737 53.3924L281.334 53.2345L264.634 95.8421L265.037 96ZM281.737 53.3924V53.825H284.467V53.3924V52.9598H281.737V53.3924ZM284.467 53.3924L284.063 53.5467L300.328 96.1543L300.732 96L301.136 95.8457L284.872 53.2381L284.467 53.3924ZM300.732 96V95.5674H297.595V96V96.4326H300.732V96ZM290.857 78.2831L291.263 78.1335L285.396 62.2174L284.99 62.367L284.584 62.5166L290.451 78.4328L290.857 78.2831ZM284.99 62.367L285.394 62.213C285.241 61.8092 285.048 61.2887 284.816 60.6508L284.409 60.7986L284.003 60.9465C284.235 61.5865 284.43 62.1115 284.586 62.521L284.99 62.367ZM284.409 60.7986L284.82 60.6618C284.606 60.0204 284.373 59.3405 284.12 58.6221L283.712 58.7655L283.304 58.9089C283.555 59.6234 283.787 60.2989 283.999 60.9354L284.409 60.7986ZM283.712 58.7655L284.124 58.6321C283.89 57.9113 283.656 57.2288 283.422 56.5846L283.015 56.7325L282.609 56.8803C282.839 57.514 283.07 58.1869 283.301 58.899L283.712 58.7655ZM283.015 56.7325L282.599 56.6136C282.408 57.284 282.197 57.9545 281.967 58.6252L282.376 58.7655L282.785 58.9058C283.02 58.2212 283.235 57.5363 283.431 56.8513L283.015 56.7325ZM282.376 58.7655L281.967 58.6252C281.734 59.304 281.511 59.9635 281.298 60.6037L281.708 60.7405L282.119 60.8773C282.331 60.2396 282.553 59.5824 282.785 58.9058L282.376 58.7655ZM281.708 60.7405L281.299 60.5999C281.087 61.2156 280.886 61.7721 280.695 62.2698L281.098 62.4251L281.502 62.5804C281.698 62.0712 281.903 61.5047 282.117 60.8812L281.708 60.7405ZM281.098 62.4251L280.695 62.2698L274.595 78.1278L274.999 78.2831L275.403 78.4384L281.502 62.5804L281.098 62.4251ZM274.999 78.2831V78.7157H290.857V78.2831V77.8505H274.999V78.2831ZM308.922 64.4291H309.355V63.9965H308.922V64.4291ZM308.922 96V96.4326H309.355V96H308.922ZM305.989 96H305.556V96.4326H305.989V96ZM305.989 64.4291V63.9965H305.556V64.4291H305.989ZM309.126 53.4214L308.785 53.6881L308.791 53.6954L309.126 53.4214ZM305.931 53.4214L306.266 53.6954L306.272 53.688L305.931 53.4214ZM308.922 64.4291H308.49V96H308.922H309.355V64.4291H308.922ZM308.922 96V95.5674H305.989V96V96.4326H308.922V96ZM305.989 96H306.422V64.4291H305.989H305.556V96H305.989ZM305.989 64.4291V64.8617H308.922V64.4291V63.9965H305.989V64.4291ZM307.499 52.7534V53.186C308.146 53.186 308.542 53.3775 308.785 53.688L309.126 53.4214L309.466 53.1548C309.012 52.5747 308.325 52.3208 307.499 52.3208V52.7534ZM309.126 53.4214L308.791 53.6954C309.058 54.0215 309.216 54.4944 309.216 55.1641H309.649H310.081C310.081 54.3622 309.891 53.6734 309.461 53.1475L309.126 53.4214ZM309.649 55.1641H309.216C309.216 55.8337 309.058 56.3067 308.791 56.6328L309.126 56.9067L309.461 57.1807C309.891 56.6548 310.081 55.966 310.081 55.1641H309.649ZM309.126 56.9067L308.791 56.6328C308.55 56.9271 308.152 57.1131 307.499 57.1131V57.5457V57.9783C308.318 57.9783 309.004 57.7383 309.461 57.1807L309.126 56.9067ZM307.499 57.5457V57.1131C306.894 57.1131 306.511 56.9325 306.266 56.6328L305.931 56.9067L305.596 57.1807C306.048 57.7329 306.71 57.9783 307.499 57.9783V57.5457ZM305.931 56.9067L306.266 56.6328C305.999 56.3067 305.841 55.8337 305.841 55.1641H305.408H304.976C304.976 55.966 305.166 56.6548 305.596 57.1807L305.931 56.9067ZM305.408 55.1641H305.841C305.841 54.4944 305.999 54.0215 306.266 53.6954L305.931 53.4214L305.596 53.1475C305.166 53.6734 304.976 54.3622 304.976 55.1641H305.408ZM305.931 53.4214L306.272 53.688C306.519 53.3718 306.901 53.186 307.499 53.186V52.7534V52.3208C306.703 52.3208 306.04 52.5804 305.59 53.1548L305.931 53.4214Z" fill="#05A049" mask="url(#path-7-outside-1_344_23)"/>
</svg>
